<?xml version="1.0" encoding="utf-8"?>
<!-- Generator: Adobe Illustrator 25.1.0, SVG Export Plug-In . SVG Version: 6.00 Build 0)  -->
<svg version="1.1" id="Layer_1" xmlns="http://www.w3.org/2000/svg" xmlns:xlink="http://www.w3.org/1999/xlink" x="0px" y="0px"
	 width="500px" height="168px" viewBox="0 0 500 168" style="enable-background:new 0 0 500 168;" xml:space="preserve">
<style type="text/css">
	.st0{fill-rule:evenodd;clip-rule:evenodd;fill:#FFFFFF;}
	.st1{fill-rule:evenodd;clip-rule:evenodd;fill:#F26F36;}
</style>
<g>
	<path class="st0" d="M11.8,14.2l0.4,4.4H16L14,1.5H9.3L0.9,18.6h3.9l2-4.4L11.8,14.2L11.8,14.2z M7.9,11.4l1.7-3.7
		c0.5-1,0.9-2.3,1.4-3.3l0,0c0.1,1,0.2,2.4,0.3,3.3l0.3,3.7H7.9z"/>
	<polygon class="st0" points="21.4,18.6 24.9,0.6 21.2,0.6 17.8,18.6 	"/>
	<path class="st0" d="M28.2,18.6l2.4-12.4h-3.7l-2.4,12.4H28.2L28.2,18.6z M29.2,4.7c1.2,0,2.2-0.8,2.2-2.1c0-1.1-0.8-1.8-1.8-1.8
		c-1.1,0-2.1,0.8-2.1,2.1C27.4,4,28.1,4.7,29.2,4.7L29.2,4.7z"/>
	<path class="st0" d="M34.8,18.6l1-5.6c0.5-2.4,1.8-4.2,3-4.2c0.9,0,1.2,0.7,1.2,1.5c0,0.4-0.1,0.9-0.2,1.4l-1.3,6.8H42l1-5.6
		c0.5-2.5,1.7-4.1,2.9-4.1c0.9,0,1.2,0.6,1.2,1.5c0,0.5-0.1,1-0.2,1.5l-1.2,6.8h3.5l1.3-7.2c0.1-0.6,0.2-1.6,0.2-2.1
		c0-2.1-1.1-3.3-3-3.3c-1.6,0-3.1,0.7-4.3,2.3c-0.1-1.1-1-2.3-2.9-2.3c-1.6,0-3.1,0.7-4.2,2.3h-0.1l0.2-2h-3.1
		c-0.2,1.1-0.4,2.5-0.6,4l-1.5,8.4L34.8,18.6L34.8,18.6z"/>
	<path class="st0" d="M62.4,15.3c-1,0.5-2.1,0.8-3.5,0.8c-1.1,0-1.9-0.3-2.4-1c-0.3-0.4-0.4-0.9-0.4-1.3c5,0.1,8-1,8-4.2
		c0-2.3-1.8-3.7-4.3-3.7c-4.5,0-7.2,3.9-7.2,7.7c0,3.2,1.8,5.3,5.4,5.3c1.4,0,3.2-0.3,4.6-1L62.4,15.3L62.4,15.3z M60.8,9.7
		c0,1.1-1.4,1.5-4.3,1.5c0.3-1.2,1.2-2.6,2.9-2.6C60.3,8.6,60.8,9,60.8,9.7L60.8,9.7z"/>
	<path class="st0" d="M68.7,18.6l1-5.5c0.5-2.7,1.9-4.2,3.1-4.2c0.9,0,1.2,0.6,1.2,1.5c0,0.5-0.1,1-0.1,1.4l-1.3,6.9h3.7l1.4-7.2
		c0.1-0.6,0.2-1.5,0.2-2.1c0-2.1-1.1-3.4-3.2-3.4c-1.6,0-3.2,0.7-4.4,2.3h-0.1l0.3-2.1h-3.2c-0.2,1.1-0.4,2.5-0.7,4L65,18.6H68.7z"
		/>
	<path class="st0" d="M82.6,3.9l-0.5,2.3h-1.6L80,9h1.6l-1,4.9c-0.2,1-0.3,1.6-0.3,2.3c0,1.5,1,2.7,3.2,2.7c0.8,0,1.7-0.1,2.2-0.3
		l0.4-2.9c-0.3,0.1-0.7,0.1-1,0.1c-0.8,0-1-0.4-1-1c0-0.4,0.1-1.1,0.2-1.6L85.1,9h2.6l0.5-2.8h-2.6l0.6-3.4L82.6,3.9z"/>
	<path class="st0" d="M95.8,5.9c-4.4,0-7.4,3.5-7.4,7.8c0,3.1,2.1,5.1,5.3,5.1c4.3,0,7.4-3.3,7.4-7.9C101.1,8.2,99.2,5.9,95.8,5.9
		L95.8,5.9z M95.4,8.7c1.5,0,2,1.2,2,2.4c0,2.1-1.1,5-3.1,5c-1.3,0-2-1-2-2.4C92.2,11.8,93.3,8.7,95.4,8.7z"/>
	<path class="st0" d="M101.8,17.9c0.7,0.6,2.2,0.9,3.8,1c3.3,0,5.7-1.5,5.7-4.4c0-1.7-1.4-2.7-2.8-3.4c-1-0.5-1.5-0.9-1.5-1.4
		c0-0.7,0.7-1.1,1.6-1.1c1.1,0,2,0.3,2.5,0.6l0.9-2.6c-0.6-0.4-1.8-0.6-3.2-0.6c-3.2,0-5.5,1.7-5.5,4.3c0,1.5,1.2,2.6,2.6,3.3
		c1.1,0.6,1.5,1,1.5,1.6s-0.5,1.1-1.6,1.1c-1.2,0-2.5-0.5-3.2-0.9L101.8,17.9z"/>
	<path class="st0" d="M117.6,18.4c0.8,0.2,2.4,0.3,4.3,0.3c2.8,0,5-0.4,6.4-1.4c1.3-0.9,2.3-2.2,2.3-4.1s-1-3.2-2.7-3.7l0,0
		c1.9-0.5,3.5-1.9,3.5-4.1c0-1.4-0.8-2.5-2-3.1c-1.1-0.7-2.5-0.9-4.2-0.9s-3.3,0.2-4.5,0.4L117.6,18.4L117.6,18.4z M123.9,4.4
		c0.3-0.1,0.8-0.1,1.4-0.1c1.4,0,2.4,0.5,2.4,1.8c0,1.4-1.4,2.3-3.4,2.3h-1.2L123.9,4.4L123.9,4.4z M122.6,11h1.1
		c1.7,0,3.1,0.5,3.1,2.2c0,1.9-1.8,2.7-3.8,2.7c-0.5,0-1,0-1.4-0.1L122.6,11z"/>
	<path class="st0" d="M143.7,18.6c-0.1-1.5,0.2-4,0.5-5.6l1.3-6.5c-1-0.3-2.6-0.6-4.1-0.6c-6.1,0-8.9,4.5-8.9,8.7
		c0,2.6,1.5,4.3,3.8,4.3c1.4,0,3-0.7,4.2-2.7h0.1c-0.1,0.9-0.2,1.7-0.2,2.5h3.3L143.7,18.6L143.7,18.6z M140.8,11.7
		c-0.6,3-1.9,4.3-3,4.3c-1,0-1.5-0.8-1.5-2.1c0-2.3,1.7-5.2,4.1-5.2c0.4,0,0.7,0.1,1,0.1L140.8,11.7z"/>
	<polygon class="st0" points="149.9,18.6 153.3,0.6 149.7,0.6 146.2,18.6 	"/>
	<path class="st0" d="M164.4,18.6c-0.1-1.5,0.2-4,0.5-5.6l1.3-6.5c-1-0.3-2.6-0.6-4.1-0.6c-6.1,0-8.9,4.5-8.9,8.7
		c0,2.6,1.5,4.3,3.8,4.3c1.4,0,3-0.7,4.2-2.7h0.1c-0.1,0.9-0.2,1.7-0.2,2.5h3.3L164.4,18.6L164.4,18.6z M161.6,11.7
		c-0.6,3-1.9,4.3-3,4.3c-1,0-1.5-0.8-1.5-2.1c0-2.3,1.7-5.2,4.1-5.2c0.4,0,0.7,0.1,1,0.1L161.6,11.7z"/>
	<path class="st0" d="M170.8,18.6l1-5.5c0.5-2.7,1.9-4.2,3.1-4.2c0.9,0,1.2,0.6,1.2,1.5c0,0.5-0.1,1-0.1,1.4l-1.3,6.9h3.7l1.4-7.2
		c0.1-0.6,0.2-1.5,0.2-2.1c0-2.1-1.1-3.4-3.2-3.4c-1.6,0-3.2,0.7-4.4,2.3h-0.1l0.3-2.1h-3.2c-0.2,1.1-0.4,2.5-0.7,4l-1.6,8.4H170.8z
		"/>
	<path class="st0" d="M190.5,15.4c-0.6,0.3-1.4,0.5-2.5,0.5c-1.4,0-2.4-0.9-2.4-2.6c0-2.3,1.6-4.5,4.2-4.5c0.7,0,1.2,0.1,1.7,0.3
		l0.9-2.8c-0.5-0.2-1.4-0.4-2.5-0.4c-4.7,0-8.1,3.4-8.1,7.9c0,3.2,2.2,5.1,5.2,5.1c1.5,0,2.7-0.3,3.5-0.7L190.5,15.4z"/>
	<path class="st0" d="M202.3,15.3c-1,0.5-2.1,0.8-3.5,0.8c-1.1,0-1.9-0.3-2.4-1c-0.3-0.4-0.4-0.9-0.4-1.3c5,0.1,8-1,8-4.2
		c0-2.3-1.8-3.7-4.3-3.7c-4.5,0-7.2,3.9-7.2,7.7c0,3.2,1.8,5.3,5.4,5.3c1.4,0,3.2-0.3,4.6-1L202.3,15.3L202.3,15.3z M200.7,9.7
		c0,1.1-1.4,1.5-4.3,1.5c0.3-1.2,1.2-2.6,2.9-2.6C200.2,8.6,200.7,9,200.7,9.7L200.7,9.7z"/>
	<path class="st0" d="M216.4,18.6c-0.1-1.5,0.2-4,0.5-5.6l1.3-6.5c-1-0.3-2.6-0.6-4.1-0.6c-6.1,0-8.9,4.5-8.9,8.7
		c0,2.6,1.5,4.3,3.8,4.3c1.4,0,3-0.7,4.2-2.7h0.1c-0.1,0.9-0.2,1.7-0.2,2.5h3.3L216.4,18.6L216.4,18.6z M213.5,11.7
		c-0.6,3-1.9,4.3-3,4.3c-1,0-1.5-0.8-1.5-2.1c0-2.3,1.7-5.2,4.1-5.2c0.4,0,0.7,0.1,1,0.1L213.5,11.7z"/>
	<path class="st0" d="M229.9,0.6l-1.1,5.6c-0.5-0.2-1.2-0.3-1.7-0.3c-4.7,0-7.8,4-7.8,8.3c0,3,1.8,4.7,3.9,4.7c1.4,0,3-0.6,4.1-2.3
		h0.1l-0.2,2h3.4c0.1-1.5,0.3-3.2,0.6-4.8l2.5-13.2L229.9,0.6L229.9,0.6z M227.6,12.5c-0.5,2.4-1.8,3.5-2.8,3.5
		c-1.1,0-1.7-0.8-1.7-2.3c0-2.4,1.5-4.9,3.7-4.9c0.6,0,1.2,0.2,1.4,0.4L227.6,12.5z"/>
	<path class="st0" d="M241,5.9c-4.4,0-7.4,3.5-7.4,7.8c0,3.1,2.1,5.1,5.3,5.1c4.3,0,7.4-3.3,7.4-7.9C246.3,8.2,244.3,5.9,241,5.9
		L241,5.9z M240.5,8.7c1.5,0,2,1.2,2,2.4c0,2.1-1.1,5-3.1,5c-1.3,0-2-1-2-2.4C237.3,11.8,238.4,8.7,240.5,8.7z"/>
	<path class="st0" d="M246.9,17.9c0.7,0.6,2.2,0.9,3.8,1c3.3,0,5.7-1.5,5.7-4.4c0-1.7-1.4-2.7-2.8-3.4c-1-0.5-1.5-0.9-1.5-1.4
		c0-0.7,0.7-1.1,1.6-1.1c1.1,0,2,0.3,2.5,0.6l0.9-2.6c-0.6-0.4-1.8-0.6-3.2-0.6c-3.2,0-5.5,1.7-5.5,4.3c0,1.5,1.2,2.6,2.6,3.3
		c1.1,0.6,1.5,1,1.5,1.6s-0.5,1.1-1.6,1.1c-1.2,0-2.5-0.5-3.2-0.9L246.9,17.9z"/>
	<path class="st1" d="M12.6,122.6c-2.9,0-5.7-1.2-8-3.2c-2.2-1.9-3.9-4.6-4.5-7.5C0,111,0,110,0,109.1c0.1-1,0.3-1.9,0.6-2.7l0,0
		l26.7-68.9v-0.1v-0.1c0.8-1.4,1.6-2.5,2.8-3.4c1.2-0.9,2.8-1.3,5-1.3l0,0h50.5h2.7l-1,2.5l-5.9,15.3l-0.5,1.2h-1.2H47.4L45,58.3
		c0,0.1-0.1,0.2-0.1,0.3l-15,38.5c-0.6,1.6-1.4,3.5-0.4,5.2c0.6,1,1.9,1.6,3.8,1.6c2.3,0,4.7-0.8,6.4-2.5c1.4-1.3,1.9-2.6,2.6-4.3
		L52.4,71h18.8h2.7L73,73.5l-18.3,48l-0.4,1.2H53L12.6,122.6L12.6,122.6z"/>
	<polygon class="st1" points="247.8,32.6 263.5,32.6 265.2,32.6 265.4,34.3 269.4,80.3 287.2,33.8 287.7,32.6 288.9,32.6 
		307.1,32.6 309.8,32.6 308.8,35.1 275.7,121.4 275.2,122.6 274,122.6 258.1,122.6 256.5,122.6 256.3,121 251.1,78.7 234.7,121.4 
		234.2,122.6 233,122.6 214.7,122.6 212,122.6 213,120.1 246.1,33.8 246.6,32.6 	"/>
	<path class="st1" d="M193,32.6h18.1h1.9l-0.1,1.9l-5.5,86.3l-0.1,1.7h-1.7h-19.4h-2.1l0.3-2.1l1.7-13.1h-19l-9.1,14.3l-0.5,0.9h-1
		h-19.4h-3.4l1.8-2.8l55.9-86.3l0.5-0.8L193,32.6L193,32.6z M189.7,93.2l4.1-31.7l-19.3,31.7H189.7z"/>
	<polygon class="st1" points="435.6,50.9 390.1,103.9 415.2,103.9 417.8,103.9 416.9,106.3 411.7,121.4 411.2,122.6 409.9,122.6 
		360.5,122.6 358.3,122.6 358.7,120.5 361.7,105.3 361.8,104.8 362.1,104.5 406.6,51.7 384.3,51.7 381.7,51.7 382.6,49.3 
		387.8,33.9 388.2,32.6 389.5,32.6 437.3,32.6 439.5,32.6 439.1,34.8 436,50.1 435.9,50.6 	"/>
	<path class="st1" d="M340.3,32.6h17.5h1.9l-0.1,1.9l-5.5,86.3l-0.1,1.7h-1.7h-19.4h-2.1l0.3-2.1l1.7-13.1h-19l-9.1,14.3l-0.5,0.9
		h-1h-19.4h-3.4l1.9-2.8l56.6-86.3l0.5-0.8L340.3,32.6L340.3,32.6z M336.4,93.2l4.2-31.9l-19.3,31.9H336.4z"/>
	<path class="st0" d="M491.7,157.3c-0.1,0.8-0.5,1.4-1.1,1.9s-1.3,0.7-2,0.7s-1.3-0.2-1.7-0.7c-0.4-0.5-0.6-1-0.5-1.6
		c0.1-0.4,0.2-0.7,0.4-1.1c0.2-0.3,0.4-0.6,0.7-0.9c0.3-0.2,0.6-0.4,0.9-0.6c0.3-0.1,0.7-0.2,1.1-0.2c0.7,0,1.3,0.2,1.7,0.7
		C491.6,156.1,491.8,156.7,491.7,157.3L491.7,157.3z M498.3,137l-6.1,16.6h-3.7l4.8-16.6H498.3L498.3,137z M481.4,147.3
		c-0.4-0.1-1-0.2-1.6-0.2c-0.8,0-1.5,0.2-2.2,0.7s-1.3,1-1.8,1.7s-0.9,1.5-1.3,2.3c-0.3,0.9-0.5,1.7-0.7,2.5c-0.2,1.3,0.1,2,0.8,2
		c0.5,0,1-0.2,1.7-0.8c0.7-0.5,1.3-1.2,1.9-2.1c0.6-0.8,1.2-1.7,1.7-2.6c0.5-0.9,0.9-1.8,1.1-2.6L481.4,147.3L481.4,147.3z
		 M479.4,155L479.4,155c-0.4,1-0.8,1.8-1.1,2.6c-0.3,0.8-0.6,1.4-0.8,2h4.2c0.3-0.8,0.5-1.7,0.8-2.5c0.3-0.9,0.6-1.8,0.9-2.7
		s0.6-2,1-3.2s0.8-2.5,1.3-3.9c0.1-0.2,0.2-0.5,0.3-0.9c0.1-0.4,0.3-0.9,0.5-1.4l0.3-0.9c-0.9-0.2-1.8-0.3-2.7-0.4
		c-0.9-0.1-1.9-0.1-3-0.1c-1.7,0-3.2,0.3-4.6,0.9c-1.4,0.6-2.5,1.5-3.5,2.5s-1.8,2.3-2.4,3.6c-0.6,1.4-1,2.8-1.2,4.4
		c-0.5,3.3,0.6,4.9,3.1,4.9c0.7,0,1.3-0.1,1.9-0.4c0.6-0.3,1.3-0.6,1.9-1s1.2-1,1.7-1.6C478.4,156.4,478.9,155.7,479.4,155
		L479.4,155z M469.5,144l-5.2,15.7H460l5-15l0.2-0.7H469.5L469.5,144z M471.7,139c-0.1,0.8-0.5,1.5-1.2,2s-1.4,0.8-2.1,0.8
		s-1.3-0.2-1.7-0.7c-0.4-0.5-0.6-1.1-0.5-1.7c0.1-0.4,0.2-0.7,0.4-1.1c0.2-0.3,0.5-0.6,0.8-0.9c0.3-0.3,0.6-0.5,1-0.6
		s0.7-0.2,1.1-0.2c0.7,0,1.3,0.2,1.7,0.7S471.7,138.4,471.7,139L471.7,139z M462.3,144.3c-0.5-0.2-1.1-0.4-1.7-0.5s-1.2-0.2-1.8-0.2
		c-1.4,0-2.7,0.3-3.9,0.8c-1.2,0.6-2.3,1.3-3.2,2.3c-0.9,1-1.7,2.1-2.4,3.4c-0.6,1.3-1,2.7-1.2,4.2c-0.2,1.8,0,3.1,0.9,4.1
		c0.8,0.9,2.3,1.4,4.3,1.4c0.7,0,1.5-0.1,2.3-0.2c0.8-0.2,1.6-0.4,2.3-0.6l0.3-3.7c-0.5,0.2-1,0.4-1.6,0.5c-0.5,0.1-1.1,0.2-1.6,0.2
		c-0.9,0-1.6-0.2-1.9-0.7s-0.5-1.1-0.4-1.9c0.1-0.7,0.3-1.4,0.6-2.2c0.3-0.7,0.7-1.4,1.1-2c0.5-0.6,1-1.1,1.6-1.5s1.3-0.6,2.1-0.6
		c0.8,0,1.6,0.2,2.4,0.6L462.3,144.3L462.3,144.3z M446.6,148.8l-3.6,10.9h-4.3l3.3-9.8c0.1-0.3,0.2-0.5,0.2-0.7
		c0.1-0.2,0.1-0.4,0.1-0.5c0.1-0.8-0.2-1.3-0.8-1.3c-0.5,0-1,0.3-1.6,0.8s-1.3,1.2-1.9,2s-1.2,1.7-1.7,2.6c-0.5,1-0.9,1.9-1.2,2.8
		l-1.3,4.1h-4.3l2.7-8.2c0.2-0.6,0.4-1.2,0.6-1.9c0.2-0.6,0.4-1.3,0.7-2c0.2-0.7,0.4-1.4,0.6-2s0.3-1.1,0.5-1.6h4.2
		c-0.1,0.5-0.4,1.1-0.7,1.8c-0.3,0.7-0.7,1.6-1.3,2.7h0.1c1-1.5,2.1-2.7,3.3-3.5c1.2-0.9,2.5-1.3,3.8-1.3c1.2,0,2.1,0.3,2.6,0.9
		c0.5,0.6,0.7,1.5,0.5,2.6c0,0.2-0.1,0.4-0.1,0.7C446.8,148.2,446.7,148.5,446.6,148.8L446.6,148.8z M425.8,148.1
		c0.1-0.8-0.3-1.3-1.3-1.3c-0.9,0-1.7,0.3-2.5,1c-0.7,0.7-1.3,1.6-1.7,2.6c1.7,0,3-0.3,3.9-0.6C425.2,149.5,425.7,148.9,425.8,148.1
		L425.8,148.1z M430.1,147.5c0.1-0.5,0.1-1-0.1-1.5c-0.1-0.5-0.3-0.9-0.7-1.2c-0.3-0.4-0.8-0.7-1.5-0.9c-0.6-0.2-1.5-0.3-2.5-0.3
		c-1.2,0-2.4,0.3-3.5,0.8c-1.2,0.5-2.2,1.3-3.2,2.2c-0.9,1-1.8,2.1-2.4,3.5c-0.7,1.3-1.1,2.8-1.3,4.5c-0.2,1.8,0,3.1,0.8,4
		s2.1,1.3,4.2,1.3c1.1,0,2.1-0.1,3.2-0.2c1-0.2,2-0.4,3-0.7l0.5-3.3c-0.8,0.3-1.6,0.5-2.4,0.7s-1.6,0.3-2.3,0.3
		c-1.1,0-1.8-0.2-2.1-0.5s-0.5-0.9-0.4-1.7c0-0.1,0-0.3,0.1-0.5c0-0.2,0.1-0.4,0.1-0.6c3.2-0.1,5.6-0.6,7.5-1.6
		C428.8,150.8,429.8,149.4,430.1,147.5L430.1,147.5z M410,148.4c1-1.6,2-2.8,3-3.6c0.9-0.8,2-1.2,3.1-1.2c0.1,0,0.3,0,0.4,0
		s0.2,0,0.2,0c0.1,0,0.1,0,0.2,0l-1.5,4.2c-0.2-0.1-0.4-0.1-0.6-0.1c-0.6,0-1.2,0.2-1.8,0.6c-0.6,0.4-1.2,1-1.8,1.8
		c-0.6,0.7-1.2,1.6-1.7,2.7c-0.5,1.1-1,2.2-1.4,3.5l-1.1,3.4h-4.3l2.7-8.2c0.2-0.5,0.4-1.2,0.7-2.1c0.1-0.4,0.3-0.8,0.4-1.1
		s0.2-0.5,0.2-0.7c0.1-0.3,0.3-0.9,0.5-1.7c0.1-0.4,0.3-0.8,0.3-1.1c0.1-0.3,0.2-0.6,0.2-0.8h4.1c-0.2,0.6-0.4,1.2-0.7,1.9
		C410.8,146.6,410.4,147.4,410,148.4L410,148.4L410,148.4z M399.1,148.1c0.1-0.8-0.3-1.3-1.3-1.3c-0.9,0-1.7,0.3-2.5,1
		c-0.7,0.7-1.3,1.6-1.7,2.6c1.7,0,3-0.3,4-0.6C398.4,149.5,399,148.9,399.1,148.1L399.1,148.1z M403.3,147.5c0.1-0.5,0.1-1-0.1-1.5
		c-0.1-0.5-0.3-0.9-0.7-1.2c-0.3-0.4-0.8-0.7-1.5-0.9c-0.6-0.2-1.5-0.3-2.5-0.3c-1.2,0-2.4,0.3-3.5,0.8c-1.2,0.5-2.2,1.3-3.2,2.2
		c-0.9,1-1.8,2.1-2.4,3.5c-0.7,1.3-1.1,2.8-1.3,4.5c-0.2,1.8,0,3.1,0.8,4s2.1,1.3,4.2,1.3c1.1,0,2.1-0.1,3.2-0.2c1-0.2,2-0.4,3-0.7
		l0.5-3.3c-0.8,0.3-1.6,0.5-2.4,0.7s-1.6,0.3-2.3,0.3c-1.1,0-1.8-0.2-2.1-0.5c-0.3-0.3-0.5-0.9-0.4-1.7c0-0.1,0-0.3,0.1-0.5
		c0-0.2,0.1-0.4,0.1-0.6c3.2-0.1,5.6-0.6,7.5-1.6C402,150.8,403.1,149.4,403.3,147.5L403.3,147.5z M393.3,136.6l-1.4,3.5
		c-0.7-0.2-1.3-0.3-1.8-0.3c-0.9,0-1.6,0.2-2.1,0.7s-0.9,1.2-1.3,2.4l-0.3,1h3.4l-1.1,3.3h-3.4l-4.2,12.8c-0.8,2.5-1.9,4.3-3.3,5.5
		s-3.1,1.8-5.1,1.8c-0.9,0-1.9-0.1-2.7-0.3l1.5-3.6c0.3,0.1,0.6,0.1,0.9,0.2c0.3,0,0.6,0.1,0.8,0.1c0.9,0,1.6-0.3,2.1-0.8
		s1.1-1.5,1.5-2.9l4.2-12.8h-2.6l1.2-3.3h2.6l0.4-1.2c0.7-2.2,1.7-3.8,3-4.8c1.3-1.1,3.1-1.6,5.3-1.6
		C391.8,136.4,392.6,136.4,393.3,136.6L393.3,136.6z M377.3,144H373l-0.2,0.7l-5,15h4.3L377.3,144L377.3,144z M379.4,139
		c0.1-0.6-0.1-1.2-0.5-1.7s-1-0.7-1.7-0.7c-0.4,0-0.8,0.1-1.1,0.2c-0.4,0.1-0.7,0.3-1,0.6s-0.5,0.5-0.8,0.9
		c-0.2,0.3-0.3,0.7-0.4,1.1c-0.1,0.7,0.1,1.2,0.5,1.7s1,0.7,1.7,0.7c0.8,0,1.5-0.3,2.1-0.8C378.9,140.5,379.3,139.8,379.4,139
		L379.4,139z M363.6,147.3c-0.4-0.1-1-0.2-1.6-0.2c-0.8,0-1.5,0.2-2.2,0.7s-1.3,1-1.8,1.7s-0.9,1.5-1.3,2.3
		c-0.3,0.9-0.5,1.7-0.7,2.5c-0.2,1.3,0.1,2,0.8,2c0.5,0,1-0.2,1.7-0.8c0.7-0.5,1.3-1.2,1.9-2.1c0.6-0.8,1.2-1.7,1.7-2.6
		c0.5-0.9,0.9-1.8,1.1-2.6L363.6,147.3L363.6,147.3z M361.7,155c-0.5,1.1-0.9,2-1.3,2.8c-0.3,0.8-0.6,1.4-0.7,1.8h4.2
		c0.4-1.3,0.7-2.4,1-3.3c0.3-0.9,0.5-1.7,0.8-2.4l2.1-6.4l3.6-11h-4.3l-2.3,7.2c-0.3,0-0.6-0.1-0.8-0.1c-0.3,0-0.5,0-0.7,0
		c-1.7,0-3.2,0.3-4.6,0.9c-1.4,0.6-2.5,1.5-3.5,2.5s-1.8,2.3-2.4,3.6c-0.6,1.4-1,2.8-1.2,4.4c-0.4,3.3,0.6,4.9,3.1,4.9
		c0.7,0,1.3-0.1,1.9-0.4c0.6-0.3,1.3-0.6,1.9-1s1.2-1,1.7-1.6C360.6,156.4,361.1,155.7,361.7,155L361.7,155L361.7,155z M340.2,148
		c-0.4-0.1-1-0.2-1.6-0.2c-0.8,0-1.5,0.2-2.2,0.7s-1.3,1-1.8,1.7s-0.9,1.5-1.3,2.3c-0.3,0.9-0.5,1.7-0.7,2.5c-0.2,1.3,0.1,2,0.8,2
		c0.5,0,1-0.2,1.7-0.8c0.7-0.5,1.3-1.2,1.9-2.1c0.6-0.8,1.2-1.7,1.7-2.6c0.5-0.9,0.9-1.8,1.1-2.6L340.2,148L340.2,148z M338.2,155.8
		c-0.5,0.7-1,1.3-1.6,1.9c-0.5,0.6-1.1,1.1-1.7,1.6c-0.6,0.4-1.2,0.8-1.9,1c-0.6,0.3-1.3,0.4-1.9,0.4c-2.5,0-3.5-1.6-3.1-4.9
		c0.2-1.5,0.6-3,1.2-4.4s1.4-2.6,2.4-3.6s2.2-1.9,3.5-2.5c1.4-0.6,2.9-0.9,4.6-0.9c1,0,2,0,3,0.1c0.9,0.1,1.9,0.2,2.7,0.4l-0.3,0.9
		c-0.2,0.5-0.3,1-0.5,1.4c-0.1,0.4-0.2,0.7-0.3,0.9c-0.5,1.4-0.9,2.7-1.3,3.9s-0.7,2.2-1,3.2c-0.3,0.9-0.6,1.9-0.9,2.7
		c-0.3,0.9-0.5,1.7-0.8,2.5h-4.2c0.2-0.6,0.5-1.2,0.8-2C337.4,157.6,337.8,156.7,338.2,155.8L338.2,155.8L338.2,155.8z M330.8,137.3
		h-4.3l-7.6,23h4.3L330.8,137.3L330.8,137.3z M308.2,148.8c0.1-0.8-0.3-1.3-1.3-1.3c-0.9,0-1.7,0.3-2.5,1c-0.7,0.7-1.3,1.6-1.7,2.6
		c1.7,0,3-0.3,3.9-0.6C307.6,150.2,308.1,149.6,308.2,148.8L308.2,148.8z M312.5,148.3c-0.3,1.9-1.3,3.3-3.1,4.3
		c-1.8,1-4.3,1.5-7.5,1.6c-0.1,0.2-0.1,0.4-0.1,0.6c0,0.2-0.1,0.3-0.1,0.5c-0.1,0.8,0,1.4,0.4,1.7c0.3,0.3,1,0.5,2.1,0.5
		c0.7,0,1.5-0.1,2.3-0.3s1.6-0.4,2.4-0.7l-0.5,3.3c-0.9,0.3-1.9,0.6-3,0.7c-1,0.2-2.1,0.2-3.2,0.2c-2,0-3.4-0.4-4.2-1.3
		c-0.8-0.9-1-2.2-0.8-4c0.2-1.6,0.7-3.1,1.3-4.5c0.7-1.3,1.5-2.5,2.4-3.5s2-1.7,3.2-2.2s2.3-0.8,3.5-0.8c1,0,1.8,0.1,2.5,0.3
		c0.6,0.2,1.1,0.5,1.5,0.9c0.3,0.4,0.6,0.8,0.7,1.2C312.5,147.3,312.6,147.8,312.5,148.3L312.5,148.3z M298.6,145
		c-0.5-0.2-1.1-0.4-1.7-0.5s-1.2-0.2-1.8-0.2c-1.4,0-2.7,0.3-3.9,0.8c-1.2,0.6-2.3,1.3-3.2,2.3c-0.9,1-1.7,2.1-2.4,3.4
		c-0.6,1.3-1,2.7-1.3,4.2c-0.2,1.8,0,3.1,0.9,4.1c0.8,0.9,2.3,1.4,4.3,1.4c0.7,0,1.5-0.1,2.3-0.2c0.8-0.2,1.6-0.4,2.3-0.6l0.3-3.7
		c-0.5,0.2-1,0.4-1.6,0.5c-0.5,0.1-1.1,0.2-1.6,0.2c-1,0-1.6-0.2-1.9-0.7s-0.5-1.1-0.4-1.9c0.1-0.7,0.3-1.4,0.6-2.2
		c0.3-0.7,0.7-1.4,1.1-2c0.5-0.6,1-1.1,1.6-1.5s1.3-0.6,2.1-0.6c0.8,0,1.6,0.2,2.4,0.6L298.6,145L298.6,145z M279.1,148
		c-0.4-0.1-1-0.2-1.6-0.2c-0.8,0-1.5,0.2-2.2,0.7s-1.3,1-1.8,1.7s-0.9,1.5-1.3,2.3c-0.3,0.9-0.5,1.7-0.7,2.5c-0.2,1.3,0.1,2,0.8,2
		c0.5,0,1-0.2,1.7-0.8c0.7-0.5,1.3-1.2,1.9-2.1c0.6-0.8,1.2-1.7,1.7-2.6c0.5-0.9,0.9-1.8,1.1-2.6L279.1,148L279.1,148z M277.1,155.8
		c-0.5,0.7-1,1.3-1.6,1.9c-0.5,0.6-1.1,1.1-1.7,1.6c-0.6,0.4-1.2,0.8-1.9,1c-0.6,0.3-1.3,0.4-1.9,0.4c-2.5,0-3.5-1.6-3.1-4.9
		c0.2-1.5,0.6-3,1.2-4.4s1.4-2.6,2.4-3.6s2.2-1.9,3.5-2.5c1.4-0.6,2.9-0.9,4.6-0.9c1,0,2,0,3,0.1c0.9,0.1,1.9,0.2,2.7,0.4l-0.3,0.9
		c-0.2,0.5-0.3,1-0.5,1.4c-0.1,0.4-0.2,0.7-0.3,0.9c-0.5,1.4-0.9,2.7-1.3,3.9s-0.7,2.2-1,3.2c-0.3,0.9-0.6,1.9-0.9,2.7
		c-0.3,0.9-0.5,1.7-0.8,2.5H275c0.2-0.6,0.5-1.2,0.8-2C276.3,157.6,276.7,156.7,277.1,155.8L277.1,155.8L277.1,155.8z M269.1,139.1
		h-4.4l-2.8,8.4h-8.4l2.7-8.4H252l-7,21.3h4.3l3-9.1h8.4l-3,9.1h4.3L269.1,139.1z"/>
	<path class="st1" d="M100.8,32.6h12h12.1h15.4c4.9,0,8.8,1,11.7,2.8c2.9,1.9,4.7,4.6,5.3,8.2c0.6,3.6-0.2,7.7-1.7,12.6l-2.3,7.8
		c-1.5,5-4.3,9.2-7.6,12.8c-3.2,3.6-7,6.4-11.4,8.3c-2.2,1-4.5,1.7-6.8,2.2l3.1,35.3h-22l-3-34.6h-2.5l-13.5,34.6H65.5L100.8,32.6
		L100.8,32.6z M118,50.3l-7.9,20.1h10.8c1.2,0,2.4-0.3,3.5-0.8c1.1-0.6,2.1-1.3,3-2.3c0.8-1,1.5-2.2,2-3.5l2.6-6.6
		c0.5-1.4,0.7-2.6,0.6-3.7c-0.1-1.1-0.5-1.9-1.2-2.4s-1.7-0.8-2.9-0.8C128.5,50.3,118,50.3,118,50.3z"/>
	<path class="st1" d="M435.1,122.5c-1.2-0.1-2.4,0.2-3.4,0c-6.4-1.4-11.5-7.5-10.8-13.9c0.2-1.4,3-8,3.9-10.4L440,58.8
		c2.4-6.2,6.6-16.1,12.9-21.1c3.2-2.6,8.4-4.8,14.2-5H486c7,0,12.1,2.6,13.7,9.2c1.2,5.1-1.1,11.8-3.1,16.9l-15.4,39.4
		c-1.9,4.9-3.9,9.3-6.8,13.1c-5.9,7.8-13.4,11.1-23.1,11.3L435.1,122.5L435.1,122.5z M450.2,104.2c4.4,0,7.5-3.4,9.1-7.1l15.1-38.5
		c1.5-3.2,1.2-7.1-3.4-7.1c-4.3,0-7.5,3.4-8.9,7.1l-15.3,38.5l-0.5,1.3C445.5,101.7,446.4,104.2,450.2,104.2z"/>
</g>
</svg>
